Coordinates
version=1
nRows=14
nColumns=36
inDegrees=yes

Units are S.I. units (second, meters, Newtons, ...)
If the header above contains a line with 'inDegrees', this indicates whether rotational values are in degrees (yes) or radians (no).

endheader
time	pelvis_tilt	pelvis_list	pelvis_rotation	pelvis_tx	pelvis_ty	pelvis_tz	hip_flexion_r	hip_adduction_r	hip_rotation_r	knee_angle_r	knee_angle_r_beta	ankle_angle_r	subtalar_angle_r	mtp_angle_r	hip_flexion_l	hip_adduction_l	hip_rotation_l	knee_angle_l	knee_angle_l_beta	ankle_angle_l	subtalar_angle_l	mtp_angle_l	lumbar_extension	lumbar_bending	lumbar_rotation	arm_flex_r	arm_add_r	arm_rot_r	elbow_flex_r	pro_sup_r	arm_flex_l	arm_add_l	arm_rot_l	elbow_flex_l	pro_sup_l
      7.41666670	    -11.56427313	     -4.71424702	      1.83623112	      0.13167161	      0.93962776	      0.02914815	     37.36874591	     -4.13870395	     -6.20258737	     16.25903373	      0.28377367	      0.29694296	     -9.59435815	     -7.49999987	     24.60362342	      0.74215941	     -2.18456167	     15.58443699	      0.27199974	      6.66534248	     -7.90012855	     -7.49999987	      9.73808045	     -0.88767902	      5.75278504	     68.28255873	      5.14497459	     71.56672220	    125.52252646	     95.04514085	     57.26363912	     -3.45644323	     67.13658542	    116.14865584	     78.04204622
      7.43333330	    -11.72861763	     -4.70821054	      1.70408562	      0.13113580	      0.94073221	      0.02955312	     38.35152123	     -4.21514681	     -6.39547975	     15.14468169	      0.26432456	      0.10784944	     -8.13711944	     -7.49999987	     25.88592985	      0.55615007	     -1.61424925	     17.20235537	      0.30023774	      6.72524153	     -8.07563787	     -7.49999987	      9.24959206	     -1.23474836	      5.50941584	     69.37309924	      5.40574755	     71.93090016	    125.00297343	     92.14134992	     58.99494701	     -3.87826586	     68.32970926	    115.89493787	     76.56447649
      7.45000000	    -11.79106905	     -4.59944578	      1.79866257	      0.12852388	      0.94092529	      0.02959312	     39.20445123	     -4.55136943	     -6.76278219	     14.35940940	      0.25061897	     -0.54550699	     -7.52447215	     -7.49999987	     27.11955724	      0.64729435	     -0.84350335	     19.07760649	      0.33296705	      6.46031645	     -8.73038287	     -7.49999987	      8.63420105	     -1.64475924	      5.72145010	     70.33688539	      4.96126758	     72.38584401	    124.70343991	     95.22236142	     60.71633648	     -3.71557399	     69.51698836	    115.05755635	     77.43311665
      7.46666670	    -11.83768600	     -4.52409104	      1.68678964	      0.12561265	      0.93663960	      0.02936445	     40.06773167	     -4.78930467	     -6.98613905	     13.54837474	      0.23646375	     -1.45716189	     -7.01025529	     -7.49999987	     28.45302618	      0.63300940	     -0.36292564	     20.97904702	      0.36615344	      6.73072527	     -9.20426276	     -7.49999987	      8.04537392	     -1.94904364	      5.72570465	     71.23519655	      4.79936165	     72.60833566	    123.95510168	     93.41406508	     62.23686374	     -3.83487239	     70.30317281	    114.97361886	     75.92940071
      7.48333330	    -11.85874630	     -4.49548392	      1.61324533	      0.12321940	      0.93399084	      0.02937743	     40.88821802	     -5.00251058	     -7.27368484	     13.02671590	      0.22735908	     -2.35963292	     -7.06565213	     -7.49999987	     29.71206542	      0.66338291	      0.13982155	     23.01465173	      0.40168145	      7.04494674	     -9.67410683	     -7.49999987	      7.39829081	     -2.23235722	      6.02944324	     72.25069000	      4.42145618	     72.30776572	    124.35161741	     94.62184970	     63.95259921	     -3.56499928	     71.29638288	    114.61336072	     76.80291349
      7.50000000	    -11.88331836	     -4.56608876	      1.49137313	      0.12181283	      0.93257900	      0.03013399	     41.71523241	     -5.06089876	     -7.63649949	     12.44201428	      0.21715411	     -2.94973232	     -6.91060474	     -7.49999987	     30.84703647	      0.63684063	      0.62813715	     25.20463397	      0.43990385	      7.68781862	    -10.02070629	     -7.49999987	      6.63696332	     -2.42169800	      6.34575973	     73.52905716	      4.38841872	     72.82650323	    124.17963988	     91.51779385	     65.58480630	     -3.52912984	     72.20034154	    114.47109976	     74.71820134
      7.51666670	    -11.74651802	     -4.82023757	      1.43351624	      0.12074744	      0.93034919	      0.03035159	     42.45370288	     -4.90447291	     -7.74983186	     12.09369806	      0.21107485	     -3.41910902	     -6.85760369	     -7.49999987	     31.79634257	      0.44553360	      1.02122674	     27.61423545	      0.48195933	      8.52859114	    -10.41201608	     -7.49999987	      5.87783481	     -2.41592780	      6.57785087	     74.20168469	      3.99485852	     72.88757662	    124.24687451	     94.35281229	     66.84459959	     -3.17032613	     72.87262166	    114.27574120	     76.58909196
      7.53333330	    -11.65855501	     -5.18114356	      1.20229145	      0.11945257	      0.92587420	      0.03084108	     43.44066234	     -4.58618173	     -8.11345117	     12.15509060	      0.21214635	     -3.87082796	     -7.34087407	     -7.49999987	     32.51068451	      0.23059387	      1.06361749	     30.44728642	      0.53140540	      9.71462514	    -10.89054819	     -7.49999987	      5.01253989	     -2.33986500	      6.85189612	     75.27513905	      3.60284084	     72.45532782	    123.58264812	     92.58659753	     68.62807865	     -2.80830433	     73.67685632	    113.96471665	     75.28683864
      7.55000000	    -11.33679625	     -5.49915588	      0.99497828	      0.11825554	      0.92271120	      0.03099371	     44.19321262	     -4.33740405	     -8.17487585	     11.96711474	      0.20886555	     -4.27992857	     -7.81524637	     -7.49999987	     33.04301956	      0.04995715	      0.97930316	     33.25940942	      0.58048620	     11.39676183	    -11.65778461	     -7.49999987	      3.85459764	     -2.36819925	      6.96278790	     76.43002735	      3.24202720	     72.25608493	    122.73904518	     93.07622796	     70.32742403	     -2.41886359	     74.54643654	    113.63342113	     75.87466890
      7.56666670	    -11.16029454	     -6.02679890	      0.92892961	      0.11604058	      0.91341894	      0.03089224	     45.13460522	     -3.99169235	     -8.42281205	     12.27303601	      0.21420489	     -4.51870044	     -8.19340272	     -7.49999987	     34.12850346	     -0.22100822	      1.02950743	     36.71290142	      0.64076101	     12.84744819	    -12.51528472	     -7.49999987	      2.91191518	     -2.05716038	      6.94613985	     77.93265566	      3.06328024	     72.32535715	    122.27048814	     92.60198785	     72.20058414	     -2.14322511	     75.22706220	    113.65263074	     75.81021460
      7.58333330	    -11.06784357	     -6.49630587	      0.90338703	      0.11407171	      0.90925210	      0.03076561	     46.13718527	     -3.75221448	     -8.21148448	     12.79027479	      0.22323241	     -4.77435596	     -8.50895903	     -7.49999987	     35.31539148	     -0.39101863	      1.23624732	     39.61739059	      0.69145391	     14.23203870	    -13.28625789	     -7.49999987	      2.05029665	     -1.70787030	      6.95864306	     79.43254582	      2.95399678	     72.72874154	    122.11748039	     91.37593231	     73.74445218	     -2.02950780	     76.18907759	    113.75797110	     75.27006391
      7.60000000	    -10.57807949	     -6.85091578	      0.97845126	      0.11283823	      0.90632277	      0.03068522	     46.56418885	     -3.56905698	     -8.05217008	     12.94488374	      0.22593084	     -5.13139036	     -8.40659757	     -7.49999987	     36.08993782	     -0.49275189	      1.55466190	     41.95761649	      0.73229855	     15.30479944	    -14.08560422	     -7.49999987	      0.78725706	     -1.61511059	      7.24147296	     80.80107807	      2.38358769	     73.35157077	    122.34753307	     89.15773607	     75.20396563	     -1.45902980	     77.56134464	    113.64103041	     73.95092788
      7.61666670	    -10.37520014	     -7.04314503	      0.92310450	      0.11198329	      0.89714389	      0.02975521	     47.39823883	     -3.44510241	     -7.58257792	     13.35198761	      0.23303615	     -5.17108088	     -8.19205359	     -7.49999987	     37.36651520	     -0.45907072	      1.88741446	     44.67006164	      0.77963965	     16.31015630	    -15.07800728	     -7.49999987	     -0.17182660	     -1.61015489	      7.28592093	     82.17622244	      2.29249648	     73.43800099	    121.70710150	     89.25369989	     76.40830488	     -1.23205771	     77.99342161	    113.64076970	     74.05807400
      7.63333330	    -10.43685804	     -7.25935071	      0.86971202	      0.11214489	      0.89010489	      0.03086934	     48.30558941	     -3.26151467	     -7.20534981	     13.41662973	      0.23416436	     -5.40729119	     -8.35159279	     -7.49999987	     38.68681600	     -0.39757163	      2.51828497	     47.30403976	      0.82561124	     16.03602826	    -16.08636690	     -7.49999987	     -0.85870571	     -1.38580162	      7.82991167	     83.79431058	      1.83615195	     74.03573905	    121.73675805	     89.35641369	     77.60651649	     -1.23301330	     79.31297369	    114.72504545	     74.31715841
